<svg xmlns="http://www.w3.org/2000/svg" viewBox="0 0 64 64" fill="none">
  <rect width="64" height="64" rx="14" fill="#123A58"/>
  <path d="M18 22h28l-2.2 3.4H20.2L18 22Z" fill="#1A5290"/>
  <rect x="16" y="20" width="32" height="6" rx="2" fill="#2168B4"/>
  <path d="M20 26h24l-2 24a6 6 0 0 1-6 5.5H28a6 6 0 0 1-6-5.5L20 26Z" fill="#2168B4"/>
  <path d="M22.5 26h19l-1.6 24a4.2 4.2 0 0 1-4.2 3.8H28.3a4.2 4.2 0 0 1-4.2-3.8L22.5 26Z" fill="#3D8FD4"/>
  <circle cx="27.5" cy="38" r="3.2" fill="#EEF3F4"/>
  <circle cx="36.5" cy="38" r="3.2" fill="#EEF3F4"/>
  <circle cx="28.2" cy="38.4" r="1.5" fill="#123A58"/>
  <circle cx="37.2" cy="38.4" r="1.5" fill="#123A58"/>
  <path d="M28 45.5c1.6 2 6.4 2 8 0" stroke="#123A58" stroke-width="1.8" stroke-linecap="round"/>
  <path d="M44 18c4-1 7 3 6 7" stroke="#7AE5C9" stroke-width="2" stroke-linecap="round"/>
  <circle cx="50.5" cy="16.5" r="1.6" fill="#7AE5C9"/>
  <path d="M12 48c3.5-1 6 3.2 3.2 6.2" stroke="#4FA546" stroke-width="2" stroke-linecap="round"/>
  <path d="M14.2 47.2c2.8.4 4.6 3.8 2.2 6.4" stroke="#4FA546" stroke-width="2" stroke-linecap="round"/>
</svg>
